<?xml version="1.0" encoding="utf-8"?>
<!-- Generator: Adobe Illustrator 15.1.0, SVG Export Plug-In . SVG Version: 6.00 Build 0)  -->
<!DOCTYPE svg PUBLIC "-//W3C//DTD SVG 1.1//EN" "http://www.w3.org/Graphics/SVG/1.1/DTD/svg11.dtd">
<svg version="1.1" id="Layer_1" xmlns="http://www.w3.org/2000/svg" xmlns:xlink="http://www.w3.org/1999/xlink" x="0px" y="0px"
	 width="176.045px" height="168.232px" viewBox="0 0 176.045 168.232" enable-background="new 0 0 176.045 168.232"
	 xml:space="preserve">
<linearGradient id="SVGID_1_" gradientUnits="userSpaceOnUse" x1="1071.1865" y1="-562.5935" x2="895.0762" y2="-745.9553" gradientTransform="matrix(1 0 0 -1 -888 -549.5356)">
	<stop  offset="0" style="stop-color:#FFFFFF"/>
	<stop  offset="1" style="stop-color:#000000"/>
</linearGradient>
<polygon fill="url(#SVGID_1_)" points="176.045,159 17.045,168 30.045,34 171.045,0 "/>
<linearGradient id="SVGID_2_" gradientUnits="userSpaceOnUse" x1="1087.2119" y1="-639.8616" x2="876.2625" y2="-628.7057" gradientTransform="matrix(1 0 0 -1 -888 -549.5356)">
	<stop  offset="0" style="stop-color:#FFFFFF"/>
	<stop  offset="1" style="stop-color:#000000"/>
</linearGradient>
<polygon fill="url(#SVGID_2_)" points="172.045,154 13.045,167 25.649,30.583 165.045,2 "/>
<path fill="#FFFFFF" d="M14.367,168.232L26.133,31.29L160.419,4.138c0,0,8.273,116.749,7.146,124.641
	c-0.282,5.638-5.818,11.074-12.584,14.175"/>
<g>
	
		<linearGradient id="SVGID_3_" gradientUnits="userSpaceOnUse" x1="921.6641" y1="-620.3142" x2="938.4727" y2="-620.3142" gradientTransform="matrix(1 0 0 -1 -888 -549.5356)">
		<stop  offset="0" style="stop-color:#FFFFFF"/>
		<stop  offset="1" style="stop-color:#999999"/>
	</linearGradient>
	<path fill="url(#SVGID_3_)" stroke="#666666" d="M39.486,69.772c-0.237,3.375-3.204,6.563-6.614,7.104
		c-3.41,0.544-5.962-1.732-5.689-5.08c0.273-3.345,3.24-6.53,6.614-7.104C37.171,64.118,39.724,66.397,39.486,69.772z M33.931,62.93
		c-4.343,0.742-8.168,4.854-8.526,9.158c-0.359,4.31,2.932,7.244,7.334,6.553c4.403-0.695,8.228-4.809,8.527-9.162
		C41.564,65.123,38.274,62.185,33.931,62.93z"/>
</g>
<linearGradient id="SVGID_4_" gradientUnits="userSpaceOnUse" x1="985.2256" y1="-509.0383" x2="985.2256" y2="-601.2993" gradientTransform="matrix(1 0 0 -1 -888 -549.5356)">
	<stop  offset="0" style="stop-color:#FFFFFF"/>
	<stop  offset="1" style="stop-color:#FF0000"/>
</linearGradient>
<polygon fill="url(#SVGID_4_)" points="144.351,32.88 50.1,49.908 51.562,26.148 143.849,7.489 "/>
<linearGradient id="SVGID_5_" gradientUnits="userSpaceOnUse" x1="909.6904" y1="-619.6965" x2="909.6904" y2="-647.0217" gradientTransform="matrix(1 0 0 -1 -888 -549.5356)">
	<stop  offset="0" style="stop-color:#FFFFFF"/>
	<stop  offset="1" style="stop-color:#000000"/>
</linearGradient>
<path fill="url(#SVGID_5_)" stroke="#666666" d="M37.708,70.065c-0.274,3.813-4.302,7.513-8.997,8.258L13.5,80.737
	c-4.695,0.745-8.192-1.672-7.812-5.4l0,0c0.381-3.728,4.449-7.391,9.088-8.183l15.029-2.565
	C34.444,63.797,37.982,66.249,37.708,70.065L37.708,70.065z"/>
<g>
	
		<linearGradient id="SVGID_6_" gradientUnits="userSpaceOnUse" x1="917.7598" y1="-671.929" x2="935.3209" y2="-671.929" gradientTransform="matrix(1 0 0 -1 -888 -549.5356)">
		<stop  offset="0" style="stop-color:#FFFFFF"/>
		<stop  offset="1" style="stop-color:#999999"/>
	</linearGradient>
	<path fill="url(#SVGID_6_)" stroke="#666666" d="M35.848,121.617c-0.237,3.374-3.328,6.458-6.891,6.875s-6.24-1.966-5.967-5.311
		c0.273-3.348,3.364-6.433,6.891-6.876C33.408,115.859,36.084,118.241,35.848,121.617z M30.015,114.544
		c-4.54,0.581-8.525,4.561-8.884,8.864c-0.359,4.306,3.092,7.377,7.692,6.846c4.6-0.528,8.585-4.508,8.884-8.86
		C38.005,117.034,34.555,113.963,30.015,114.544z"/>
</g>
<linearGradient id="SVGID_7_" gradientUnits="userSpaceOnUse" x1="905.251" y1="-670.9788" x2="905.251" y2="-697.1721" gradientTransform="matrix(1 0 0 -1 -888 -549.5356)">
	<stop  offset="0" style="stop-color:#FFFFFF"/>
	<stop  offset="1" style="stop-color:#000000"/>
</linearGradient>
<path fill="url(#SVGID_7_)" stroke="#666666" d="M33.989,121.843c-0.274,3.815-4.472,7.371-9.377,7.941l-15.893,1.849
	c-4.905,0.57-8.572-1.986-8.192-5.716l0,0c0.381-3.729,4.62-7.25,9.468-7.867l15.711-1.999
	C30.555,115.434,34.263,118.026,33.989,121.843L33.989,121.843z"/>
<linearGradient id="SVGID_8_" gradientUnits="userSpaceOnUse" x1="978.7412" y1="-664.5369" x2="978.7412" y2="-741.535" gradientTransform="matrix(1 0 0 -1 -888 -549.5356)">
	<stop  offset="0" style="stop-color:#FFFFFF"/>
	<stop  offset="1" style="stop-color:#000000"/>
</linearGradient>
<path fill="url(#SVGID_8_)" d="M167.135,127.889c-0.491,19.555-26.833,19.585-39.021,22.021
	c-25.653,5.131-113.765,18.266-113.765,18.266c14.872-3.074,122.597-32.913,128.975-35.07
	C159.199,149.469,166.942,136.199,167.135,127.889z"/>
<text transform="matrix(0.9937 -0.1123 0.1123 0.9937 67.6919 129.4031)" fill="#404040" font-family="'Baveuse'" font-size="72">16</text>
<text transform="matrix(0.9822 -0.1879 0.1879 0.9822 78.3853 41.5286)" fill="#FFFFFF" font-family="'Baveuse'" font-size="21">sept</text>
<text transform="matrix(0.9842 -0.1773 0.1773 0.9842 67.6929 64.4397)" fill="#404040" font-family="'Baveuse'" font-size="16.0014">friday</text>
</svg>
